<?xml version="1.0" encoding="utf-8"?>
<!-- Generator: Adobe Illustrator 25.2.1, SVG Export Plug-In . SVG Version: 6.00 Build 0)  -->
<svg version="1.1" id="Layer_1" xmlns="http://www.w3.org/2000/svg" xmlns:xlink="http://www.w3.org/1999/xlink" x="0px" y="0px"
	 viewBox="0 0 226.7716522 28.3464565" style="enable-background:new 0 0 226.7716522 28.3464565;" xml:space="preserve">
<style type="text/css">
	.st0{opacity:0;fill:#FFFFFF;}
	.st1{fill:#597876;}
	.st2{fill:#0061A0;}
	.st3{fill:#EC6783;}
	.st4{fill:#FAB80E;}
	.st5{fill:#F37F1A;}
	.st6{fill:#800080;}
	.st7{opacity:0;fill:#597876;}
	.st8{opacity:0;fill:#0061A0;}
	.st9{opacity:0;fill:#EC6783;}
	.st10{opacity:0;fill:#FAB80E;}
	.st11{opacity:0;fill:#F37F1A;}
	.st12{opacity:0;fill:#800080;}
</style>
<rect class="st0" width="226.7716522" height="28.3464565"/>
<g>
	<g>
		<path class="st5" d="M137.3950195,6.4313993c0,0.6054688-0.1152344,1.1806641-0.3457031,1.7255859
			s-0.5625,1.0302734-0.9960938,1.4560547c-0.4414062,0.4296875-0.9414062,0.7568359-1.4960938,0.9814453
			s-1.140625,0.3369141-1.7578125,0.3369141s-1.203125-0.1123047-1.7558594-0.3369141
			c-0.5537109-0.2246094-1.0493164-0.5517578-1.4868164-0.9814453c-0.4379883-0.4335938-0.7709961-0.9208984-1-1.4619141
			c-0.2285156-0.5410156-0.3427734-1.1142578-0.3427734-1.7197266c0-0.6132812,0.1142578-1.1923828,0.3427734-1.7373047
			c0.2290039-0.5449219,0.5620117-1.0341794,1-1.4677732c0.4296875-0.4257812,0.9204102-0.7480469,1.4711914-0.9667969
			s1.1425781-0.3281251,1.7714844-0.3281251c0.6328125,0,1.2265625,0.1103517,1.7792969,0.3310548
			s1.0449219,0.5419922,1.4746094,0.9638672c0.4375,0.4335938,0.7714844,0.9228513,1,1.4677732
			S137.3950195,5.8181181,137.3950195,6.4313993z M132.7993164,10.2341337c0.5078125,0,0.9882812-0.09375,1.4414062-0.28125
			s0.8632812-0.4609375,1.2265625-0.8203125c0.3554688-0.3632812,0.6289062-0.7763672,0.8183594-1.2392578
			s0.2832031-0.9501953,0.2832031-1.4619141c0-0.515625-0.09375-1.0029297-0.28125-1.4619141
			s-0.4609375-0.8720703-0.8203125-1.2392576c-0.3554688-0.359375-0.7617188-0.6328125-1.2167969-0.8203125
			s-0.9394531-0.28125-1.4511719-0.28125c-0.5097656,0-0.9882812,0.09375-1.4375,0.28125s-0.8554688,0.4609375-1.2192383,0.8203125
			c-0.3598633,0.3710935-0.6333008,0.7841794-0.8212891,1.2392576c-0.1875,0.4550781-0.28125,0.9423828-0.28125,1.4619141
			c0,0.515625,0.09375,1.0029297,0.28125,1.4619141c0.1879883,0.4589844,0.4614258,0.8720703,0.8212891,1.2392578
			c0.3598633,0.3632812,0.762207,0.6376953,1.2075195,0.8232422S132.277832,10.2341337,132.7993164,10.2341337z"/>
		<path class="st5" d="M139.012207,10.7028837V5.5056181h0.6855469v0.8027344
			c0.2109375-0.3320312,0.4697266-0.5810547,0.7763672-0.7470703s0.6591797-0.2490234,1.0576172-0.2490234
			c0.5898438,0,1.0488281,0.1640625,1.3769531,0.4921875s0.4921875,0.7851562,0.4921875,1.3710938v3.5273438h-0.7324219V7.4978056
			c0-0.5195312-0.1083984-0.9052734-0.3251953-1.1572266s-0.5517578-0.3779297-1.0048828-0.3779297
			c-0.5507812,0-0.9560547,0.1630859-1.2158203,0.4892578s-0.3896484,0.8388672-0.3896484,1.5380859v2.7128906H139.012207z"/>
		<path class="st5" d="M149.1137695,10.7028837V9.753665c-0.171875,0.3867188-0.4121094,0.6796875-0.7207031,0.8789062
			s-0.671875,0.2988281-1.0898438,0.2988281c-0.7460938,0-1.3466797-0.2558594-1.8017578-0.7675781
			s-0.6826172-1.1875-0.6826172-2.0273438c0-0.8320312,0.2246094-1.5107422,0.6738281-2.0361328
			s1.0292969-0.7880859,1.7402344-0.7880859c0.4414062,0,0.8212891,0.0966797,1.1396484,0.2900391
			s0.5654297,0.4775391,0.7412109,0.8525391V1.6208526h0.7324219v9.0820312H149.1137695z M145.621582,8.159915
			c0,0.671875,0.1513672,1.1894531,0.4541016,1.5527344s0.7353516,0.5449219,1.2978516,0.5449219
			c0.5429688,0,0.9707031-0.1982422,1.2832031-0.5947266s0.46875-0.9423828,0.46875-1.6376953
			c0-0.6367188-0.1542969-1.1376953-0.4628906-1.5029297s-0.734375-0.5478516-1.2773438-0.5478516
			s-0.9726562,0.1943359-1.2890625,0.5830078S145.621582,7.4802275,145.621582,8.159915z"/>
		<path class="st5" d="M156.2211914,8.1247587h-4.1308594c0.0195312,0.671875,0.1875,1.1992188,0.5039062,1.5820312
			s0.7402344,0.5742188,1.2714844,0.5742188c0.3828125,0,0.71875-0.1035156,1.0078125-0.3105469
			s0.5292969-0.5195312,0.7207031-0.9375l0.6621094,0.3632812c-0.265625,0.5273438-0.5908203,0.9150391-0.9755859,1.1630859
			s-0.8564453,0.3720703-1.4150391,0.3720703c-0.7617188,0-1.3779297-0.2548828-1.8486328-0.7646484
			s-0.7060547-1.1787109-0.7060547-2.0068359c0-0.8515625,0.2333984-1.5390625,0.7001953-2.0625
			s1.0771484-0.7851562,1.8310547-0.7851562c0.71875,0,1.2949219,0.2412109,1.7285156,0.7236328
			s0.6503906,1.1259766,0.6503906,1.9306641V8.1247587z M155.3657227,7.5095243
			c-0.0351562-0.4765625-0.1933594-0.8457031-0.4746094-1.1074219s-0.6621094-0.3925781-1.1425781-0.3925781
			c-0.4375,0-0.8037109,0.1367188-1.0986328,0.4101562s-0.4658203,0.6367188-0.5126953,1.0898438H155.3657227z"/>
		<path class="st5" d="M163.5395508,10.9313993c-0.3710938,0-0.7265625-0.0732422-1.0664062-0.2197266
			s-0.6484375-0.3564453-0.9257812-0.6298828c-0.2617188-0.2578125-0.4609375-0.5546875-0.5976562-0.890625
			s-0.2050781-0.6953125-0.2050781-1.078125c0-0.3789062,0.0703125-0.7382812,0.2109375-1.078125
			s0.3417969-0.640625,0.6035156-0.9023438c0.265625-0.265625,0.5683594-0.46875,0.9082031-0.609375
			s0.6972656-0.2109375,1.0722656-0.2109375c0.3828125,0,0.7470703,0.0703125,1.0927734,0.2109375
			s0.6533203,0.34375,0.9228516,0.609375s0.4755859,0.5683594,0.6181641,0.9082031S166.387207,7.73804,166.387207,8.11304
			s-0.0703125,0.7314453-0.2109375,1.0693359s-0.34375,0.6376953-0.609375,0.8994141
			c-0.2734375,0.2734375-0.5849609,0.4833984-0.9345703,0.6298828S163.918457,10.9313993,163.5395508,10.9313993z
			 M163.5629883,10.2575712c0.5703125,0,1.0537109-0.2060547,1.4501953-0.6181641s0.5947266-0.9169922,0.5947266-1.5146484
			c0-0.6054688-0.1972656-1.1132812-0.5917969-1.5234375s-0.8789062-0.6152344-1.453125-0.6152344
			c-0.5703125,0-1.0527344,0.2050781-1.4472656,0.6152344s-0.5917969,0.9179688-0.5917969,1.5234375
			c0,0.5976562,0.1972656,1.1025391,0.5917969,1.5146484S162.9926758,10.2575712,163.5629883,10.2575712z"/>
		<path class="st5" d="M173.6938477,10.9313993c-0.3710938,0-0.7265625-0.0732422-1.0664062-0.2197266
			s-0.6484375-0.3564453-0.9257812-0.6298828c-0.2617188-0.2578125-0.4609375-0.5546875-0.5976562-0.890625
			s-0.2050781-0.6953125-0.2050781-1.078125c0-0.3789062,0.0703125-0.7382812,0.2109375-1.078125
			s0.3417969-0.640625,0.6035156-0.9023438c0.265625-0.265625,0.5683594-0.46875,0.9082031-0.609375
			s0.6972656-0.2109375,1.0722656-0.2109375c0.3828125,0,0.7470703,0.0703125,1.0927734,0.2109375
			s0.6533203,0.34375,0.9228516,0.609375s0.4755859,0.5683594,0.6181641,0.9082031s0.2138672,0.6972656,0.2138672,1.0722656
			s-0.0703125,0.7314453-0.2109375,1.0693359s-0.34375,0.6376953-0.609375,0.8994141
			c-0.2734375,0.2734375-0.5849609,0.4833984-0.9345703,0.6298828S174.0727539,10.9313993,173.6938477,10.9313993z
			 M173.7172852,10.2575712c0.5703125,0,1.0537109-0.2060547,1.4501953-0.6181641s0.5947266-0.9169922,0.5947266-1.5146484
			c0-0.6054688-0.1972656-1.1132812-0.5917969-1.5234375s-0.8789062-0.6152344-1.453125-0.6152344
			c-0.5703125,0-1.0527344,0.2050781-1.4472656,0.6152344s-0.5917969,0.9179688-0.5917969,1.5234375
			c0,0.5976562,0.1972656,1.1025391,0.5917969,1.5146484S173.1469727,10.2575712,173.7172852,10.2575712z"/>
		<path class="st5" d="M178.7504883,10.7028837h-0.7207031V1.6208526h0.7207031v4.8339844
			c0.1757812-0.375,0.4228516-0.6591797,0.7412109-0.8525391s0.6982422-0.2900391,1.1396484-0.2900391
			c0.7109375,0,1.2910156,0.2626953,1.7402344,0.7880859s0.6738281,1.2041016,0.6738281,2.0361328
			c0,0.8398438-0.2275391,1.515625-0.6826172,2.0273438s-1.0556641,0.7675781-1.8017578,0.7675781
			c-0.4179688,0-0.78125-0.0996094-1.0898438-0.2988281s-0.5488281-0.4921875-0.7207031-0.8789062V10.7028837z
			 M182.2426758,8.159915c0-0.6796875-0.1582031-1.2138672-0.4746094-1.6025391s-0.7460938-0.5830078-1.2890625-0.5830078
			s-0.96875,0.1826172-1.2773438,0.5478516s-0.4628906,0.8662109-0.4628906,1.5029297
			c0,0.6953125,0.1572266,1.2412109,0.4716797,1.6376953s0.7451172,0.5947266,1.2919922,0.5947266
			c0.5585938,0,0.9882812-0.1806641,1.2890625-0.5419922S182.2426758,8.8356962,182.2426758,8.159915z"/>
		<path class="st5" d="M184.387207,3.4782746c0-0.1523438,0.0546875-0.2822266,0.1640625-0.3896484
			s0.2402344-0.1611328,0.3925781-0.1611328s0.2841797,0.0537109,0.3955078,0.1611328s0.1669922,0.2373047,0.1669922,0.3896484
			c0,0.15625-0.0537109,0.2871094-0.1611328,0.3925781s-0.2412109,0.1582029-0.4013672,0.1582029
			c-0.15625,0-0.2880859-0.0527341-0.3955078-0.1582029S184.387207,3.6345246,184.387207,3.4782746z M184.5688477,13.316165
			V5.5056181h0.7441406v7.8105469H184.5688477z"/>
		<path class="st5" d="M191.746582,8.1247587h-4.1308594c0.0195312,0.671875,0.1875,1.1992188,0.5039062,1.5820312
			s0.7402344,0.5742188,1.2714844,0.5742188c0.3828125,0,0.71875-0.1035156,1.0078125-0.3105469
			s0.5292969-0.5195312,0.7207031-0.9375l0.6621094,0.3632812c-0.265625,0.5273438-0.5908203,0.9150391-0.9755859,1.1630859
			s-0.8564453,0.3720703-1.4150391,0.3720703c-0.7617188,0-1.3779297-0.2548828-1.8486328-0.7646484
			s-0.7060547-1.1787109-0.7060547-2.0068359c0-0.8515625,0.2333984-1.5390625,0.7001953-2.0625
			s1.0771484-0.7851562,1.8310547-0.7851562c0.71875,0,1.2949219,0.2412109,1.7285156,0.7236328
			s0.6503906,1.1259766,0.6503906,1.9306641V8.1247587z M190.8911133,7.5095243
			c-0.0351562-0.4765625-0.1933594-0.8457031-0.4746094-1.1074219s-0.6621094-0.3925781-1.1425781-0.3925781
			c-0.4375,0-0.8037109,0.1367188-1.0986328,0.4101562s-0.4658203,0.6367188-0.5126953,1.0898438H190.8911133z"/>
		<path class="st5" d="M193.3989258,6.1208525h-0.9550781V5.5056181h0.9550781V3.3728058h0.7089844v2.1328123h1.0429688v0.6152344
			h-1.0429688v4.5820312h-0.7089844V6.1208525z"/>
		<path class="st5" d="M198.5844727,10.9313993c-0.3710938,0-0.7265625-0.0732422-1.0664062-0.2197266
			s-0.6484375-0.3564453-0.9257812-0.6298828c-0.2617188-0.2578125-0.4609375-0.5546875-0.5976562-0.890625
			s-0.2050781-0.6953125-0.2050781-1.078125c0-0.3789062,0.0703125-0.7382812,0.2109375-1.078125
			s0.3417969-0.640625,0.6035156-0.9023438c0.265625-0.265625,0.5683594-0.46875,0.9082031-0.609375
			s0.6972656-0.2109375,1.0722656-0.2109375c0.3828125,0,0.7470703,0.0703125,1.0927734,0.2109375
			s0.6533203,0.34375,0.9228516,0.609375s0.4755859,0.5683594,0.6181641,0.9082031s0.2138672,0.6972656,0.2138672,1.0722656
			s-0.0703125,0.7314453-0.2109375,1.0693359s-0.34375,0.6376953-0.609375,0.8994141
			c-0.2734375,0.2734375-0.5849609,0.4833984-0.9345703,0.6298828S198.9633789,10.9313993,198.5844727,10.9313993z
			 M198.6079102,10.2575712c0.5703125,0,1.0537109-0.2060547,1.4501953-0.6181641s0.5947266-0.9169922,0.5947266-1.5146484
			c0-0.6054688-0.1972656-1.1132812-0.5917969-1.5234375s-0.8789062-0.6152344-1.453125-0.6152344
			c-0.5703125,0-1.0527344,0.2050781-1.4472656,0.6152344s-0.5917969,0.9179688-0.5917969,1.5234375
			c0,0.5976562,0.1972656,1.1025391,0.5917969,1.5146484S198.0375977,10.2575712,198.6079102,10.2575712z"/>
		<path class="st5" d="M132.9770508,22.5251503h-4.1303711c0.0195312,0.671875,0.1875,1.1992188,0.5039062,1.5820312
			s0.7402344,0.5742188,1.2709961,0.5742188c0.3828125,0,0.71875-0.1035156,1.0078125-0.3105469
			s0.5292969-0.5195312,0.7207031-0.9375l0.6621094,0.3632812c-0.265625,0.5273438-0.5898438,0.9150391-0.9746094,1.1630859
			s-0.8574219,0.3720703-1.4160156,0.3720703c-0.7612305,0-1.3774414-0.2548828-1.8481445-0.7646484
			s-0.7060547-1.1787109-0.7060547-2.0068359c0-0.8515625,0.2333984-1.5390625,0.7001953-2.0625
			s1.0771484-0.7851562,1.8305664-0.7851562c0.71875,0,1.2949219,0.2412109,1.7285156,0.7236328
			s0.6503906,1.1259766,0.6503906,1.9306641V22.5251503z M132.121582,21.9099159
			c-0.0351562-0.4765625-0.1933594-0.8457031-0.4746094-1.1074219s-0.6621094-0.3925781-1.1425781-0.3925781
			c-0.4370117,0-0.8032227,0.1367188-1.0981445,0.4101562s-0.4658203,0.6367188-0.5126953,1.0898438H132.121582z
			 M129.7607422,19.068119l1.2475586-2.0507812h0.9609375l-1.6582031,2.0507812H129.7607422z"/>
		<path class="st5" d="M138.6547852,19.9060097v2.5957031c0,0.7890625,0.1123047,1.3457031,0.3369141,1.6699219
			s0.6044922,0.4863281,1.1396484,0.4863281c0.53125,0,0.9121094-0.1640625,1.1425781-0.4921875
			s0.3457031-0.8828125,0.3457031-1.6640625v-2.5957031h0.7148438v2.9648438c0,0.8085938-0.1855469,1.4208984-0.5566406,1.8369141
			s-0.9160156,0.6240234-1.6347656,0.6240234c-0.7226562,0-1.2714844-0.2080078-1.6464844-0.6240234
			s-0.5625-1.0283203-0.5625-1.8369141v-2.9648438H138.6547852z"/>
		<path class="st5" d="M143.6645508,24.177494l0.6855469-0.3925781c0.1132812,0.2890625,0.2773438,0.5068359,0.4921875,0.6533203
			s0.4785156,0.2197266,0.7910156,0.2197266c0.3046875,0,0.546875-0.0771484,0.7265625-0.2314453
			s0.2695312-0.3603516,0.2695312-0.6181641c0-0.3984375-0.3535156-0.7363281-1.0605469-1.0136719
			c-0.0742188-0.0273438-0.1328125-0.0507812-0.1757812-0.0703125c-0.546875-0.2148438-0.9296875-0.4365234-1.1484375-0.6650391
			s-0.328125-0.5107422-0.328125-0.8466797c0-0.4414062,0.15625-0.8037109,0.46875-1.0869141
			s0.7167969-0.4248047,1.2128906-0.4248047c0.421875,0,0.78125,0.0917969,1.078125,0.2753906
			s0.5136719,0.4453125,0.6503906,0.7851562l-0.6621094,0.3691406c-0.0820312-0.2460938-0.21875-0.4335938-0.4101562-0.5625
			s-0.4257812-0.1933594-0.703125-0.1933594c-0.25,0-0.4560547,0.0732422-0.6181641,0.2197266
			s-0.2431641,0.3291016-0.2431641,0.5478516c0,0.2148438,0.0800781,0.3925781,0.2402344,0.5332031
			s0.4921875,0.2949219,0.9960938,0.4628906c0.5703125,0.1992188,0.9541016,0.4160156,1.1513672,0.6503906
			s0.2958984,0.5585938,0.2958984,0.9726562c0,0.4765625-0.1699219,0.8574219-0.5097656,1.1425781
			s-0.796875,0.4277344-1.3710938,0.4277344c-0.4414062,0-0.8212891-0.1005859-1.1396484-0.3017578
			S143.8051758,24.5446815,143.6645508,24.177494z"/>
		<path class="st5" d="M152.6762695,25.1032753v-0.9492188c-0.171875,0.3828125-0.4130859,0.6748047-0.7236328,0.8759766
			s-0.6767578,0.3017578-1.0986328,0.3017578c-0.7460938,0-1.3466797-0.2558594-1.8017578-0.7675781
			s-0.6826172-1.1875-0.6826172-2.0273438c0-0.8320312,0.2246094-1.5107422,0.6738281-2.0361328
			s1.0292969-0.7880859,1.7402344-0.7880859c0.4414062,0,0.8232422,0.0966797,1.1455078,0.2900391
			s0.5712891,0.4775391,0.7470703,0.8525391v-0.9492188h0.7207031v5.1972656H152.6762695z M149.1723633,22.5603065
			c0,0.671875,0.1513672,1.1894531,0.4541016,1.5527344s0.7353516,0.5449219,1.2978516,0.5449219
			c0.546875,0,0.9775391-0.1982422,1.2919922-0.5947266s0.4716797-0.9423828,0.4716797-1.6376953
			c0-0.6367188-0.15625-1.1376953-0.46875-1.5029297s-0.7402344-0.5478516-1.2832031-0.5478516
			s-0.9726562,0.1943359-1.2890625,0.5830078S149.1723633,21.880619,149.1723633,22.5603065z"/>
		<path class="st5" d="M159.1801758,25.1032753v-0.9492188c-0.171875,0.3867188-0.4121094,0.6796875-0.7207031,0.8789062
			s-0.671875,0.2988281-1.0898438,0.2988281c-0.7460938,0-1.3466797-0.2558594-1.8017578-0.7675781
			s-0.6826172-1.1875-0.6826172-2.0273438c0-0.8320312,0.2246094-1.5107422,0.6738281-2.0361328
			s1.0292969-0.7880859,1.7402344-0.7880859c0.4414062,0,0.8212891,0.0966797,1.1396484,0.2900391
			s0.5654297,0.4775391,0.7412109,0.8525391V16.021244h0.7324219v9.0820312H159.1801758z M155.6879883,22.5603065
			c0,0.671875,0.1513672,1.1894531,0.4541016,1.5527344s0.7353516,0.5449219,1.2978516,0.5449219
			c0.5429688,0,0.9707031-0.1982422,1.2832031-0.5947266s0.46875-0.9423828,0.46875-1.6376953
			c0-0.6367188-0.1542969-1.1376953-0.4628906-1.5029297s-0.734375-0.5478516-1.2773438-0.5478516
			s-0.9726562,0.1943359-1.2890625,0.5830078S155.6879883,21.880619,155.6879883,22.5603065z"/>
		<path class="st5" d="M164.184082,25.3317909c-0.3710938,0-0.7265625-0.0732422-1.0664062-0.2197266
			s-0.6484375-0.3564453-0.9257812-0.6298828c-0.2617188-0.2578125-0.4609375-0.5546875-0.5976562-0.890625
			s-0.2050781-0.6953125-0.2050781-1.078125c0-0.3789062,0.0703125-0.7382812,0.2109375-1.078125
			s0.3417969-0.640625,0.6035156-0.9023438c0.265625-0.265625,0.5683594-0.46875,0.9082031-0.609375
			s0.6972656-0.2109375,1.0722656-0.2109375c0.3828125,0,0.7470703,0.0703125,1.0927734,0.2109375
			s0.6533203,0.34375,0.9228516,0.609375s0.4755859,0.5683594,0.6181641,0.9082031s0.2138672,0.6972656,0.2138672,1.0722656
			s-0.0703125,0.7314453-0.2109375,1.0693359s-0.34375,0.6376953-0.609375,0.8994141
			c-0.2734375,0.2734375-0.5849609,0.4833984-0.9345703,0.6298828S164.5629883,25.3317909,164.184082,25.3317909z
			 M164.2075195,24.6579628c0.5703125,0,1.0537109-0.2060547,1.4501953-0.6181641s0.5947266-0.9169922,0.5947266-1.5146484
			c0-0.6054688-0.1972656-1.1132812-0.5917969-1.5234375s-0.8789062-0.6152344-1.453125-0.6152344
			c-0.5703125,0-1.0527344,0.2050781-1.4472656,0.6152344s-0.5917969,0.9179688-0.5917969,1.5234375
			c0,0.5976562,0.1972656,1.1025391,0.5917969,1.5146484S163.637207,24.6579628,164.2075195,24.6579628z"/>
		<path class="st5" d="M169.2641602,18.6814003h-0.6972656v-0.1875c0-0.671875,0.1894531-1.2001953,0.5683594-1.5849609
			s0.8984375-0.5771484,1.5585938-0.5771484c0.59375,0,1.0673828,0.1757812,1.4208984,0.5273438
			s0.5302734,0.8242188,0.5302734,1.4179688c0,0.4335938-0.09375,0.796875-0.28125,1.0898438s-0.5683594,0.625-1.1425781,0.9960938
			c-0.1015625,0.0625-0.2421875,0.1503906-0.421875,0.2636719c-0.7773438,0.4804688-1.1660156,0.9335938-1.1660156,1.359375
			c0,0.28125,0.0898438,0.5068359,0.2695312,0.6767578s0.4179688,0.2548828,0.7148438,0.2548828
			c0.3476562,0,0.6171875-0.0908203,0.8085938-0.2724609s0.2871094-0.4384766,0.2871094-0.7705078v-0.1054688h0.6445312v0.140625
			c0,0.5273438-0.15625,0.9316406-0.46875,1.2128906s-0.7636719,0.421875-1.3535156,0.421875
			c-0.484375,0-0.8798828-0.1464844-1.1865234-0.4394531s-0.4599609-0.671875-0.4599609-1.1367188
			c0-0.3398438,0.0898438-0.6396484,0.2695312-0.8994141s0.5136719-0.5517578,1.0019531-0.8759766
			c0.1015625-0.0625,0.2441406-0.1523438,0.4277344-0.2695312c0.8828125-0.5585938,1.3242188-1.0917969,1.3242188-1.5996094
			c0-0.3789062-0.1132812-0.6816406-0.3398438-0.9082031s-0.5332031-0.3398438-0.9199219-0.3398438
			c-0.4453125,0-0.7880859,0.1367188-1.0283203,0.4101562s-0.3603516,0.6601562-0.3603516,1.1601562V18.6814003z
			 M169.9086914,24.7341347c0-0.1679688,0.0585938-0.3105469,0.1757812-0.4277344s0.2597656-0.1757812,0.4277344-0.1757812
			s0.3095703,0.0585938,0.4248047,0.1757812s0.1728516,0.2597656,0.1728516,0.4277344s-0.0576172,0.3095703-0.1728516,0.4248047
			s-0.2568359,0.1728516-0.4248047,0.1728516s-0.3105469-0.0576172-0.4277344-0.1728516
			S169.9086914,24.9021034,169.9086914,24.7341347z"/>
	</g>
	<g>
		<g>
			<path class="st5" d="M6.0825195,5.5847197C6.0708008,5.9392118,6.0063477,6.4489775,5.8891602,7.1140165
				C5.8696289,7.222415,5.8540039,7.3083525,5.8422852,7.3728056l-0.6445312,3.6855469H2.5083008L0.0004883,0.244876h3.09375
				l0.6738281,4.7636719C3.8266602,5.4274931,3.871582,5.8103056,3.902832,6.1579618
				c0.03125,0.3466797,0.0507812,0.6728516,0.0585938,0.9785156h0.0703125
				C4.0395508,6.7077665,4.1000977,6.14429,4.2133789,5.4450712c0.0078125-0.0644531,0.015625-0.1162109,0.0234375-0.1552734
				L5.0512695,0.244876h2.1738281l0.8144531,5.0517578C8.043457,5.3269072,8.0512695,5.3757353,8.0629883,5.4450712
				c0.1132812,0.7041016,0.1738281,1.2675781,0.1816406,1.6914062h0.0703125
				c0.0078125-0.3056641,0.0273438-0.6318359,0.0585938-0.9785156c0.03125-0.3476562,0.0761719-0.7304688,0.1347656-1.1494141
				L9.1821289,0.244876h3.09375L9.7680664,11.0583525H7.0786133L6.434082,7.3728056
				C6.4223633,7.3083525,6.4067383,7.2204618,6.387207,7.106204C6.2700195,6.4470243,6.2055664,5.9392118,6.1938477,5.5847197
				H6.0825195z"/>
			<path class="st5" d="M12.4658203,11.0583525V0.244876h3.1347656v10.8134766H12.4658203z"/>
			<path class="st5" d="M16.8686523,11.0583525V0.244876h3.0234375v4.609375l1.9570312-4.609375h3.4921875l-2.5898438,5.3251953
				l2.953125,5.4882812H21.972168l-2.0800781-4.5205078v4.5205078H16.8686523z"/>
			<path class="st5" d="M25.7011719,11.0583525V0.244876h3.1347656v10.8134766H25.7011719z"/>
			<path class="st5" d="M41.6611328,11.0583525l-0.375-4.2841797c-0.0234375-0.3300781-0.046875-0.6582031-0.0703125-0.9863281
				c-0.0234375-0.3271484-0.0429688-0.6552734-0.0585938-0.9853516c-0.0351562,0.3095703-0.0849609,0.6386719-0.1494141,0.9853516
				c-0.0644531,0.3476562-0.1435547,0.7177734-0.2373047,1.1123047l-0.984375,4.1582031h-1.8339844l-0.984375-4.1582031
				c-0.0976562-0.3945312-0.1777344-0.7646484-0.2402344-1.1123047c-0.0625-0.3466797-0.1113281-0.6757812-0.1464844-0.9853516
				c-0.0195312,0.3349609-0.0400391,0.6640625-0.0615234,0.9892578s-0.0439453,0.6523438-0.0673828,0.9824219l-0.375,4.2841797
				h-3.0234375L34.5185547,0.244876h3.1816406l0.609375,2.6738281c0.0195312,0.0839844,0.0488281,0.2089844,0.0878906,0.3769531
				c0.2578125,1.1269529,0.4160156,2.0556638,0.4746094,2.7841794h0.0527344
				c0.046875-0.4580078,0.1171875-0.9453125,0.2109375-1.4619141c0.09375-0.5175781,0.21875-1.0986326,0.375-1.7431638
				l0.6386719-2.6298828h3.1757812l1.359375,10.8134766H41.6611328z"/>
			<path class="st5" d="M45.0444336,6.1091337V0.244876h3.0820312v5.8945312c0,0.6845703,0.0644531,1.1552734,0.1933594,1.4140625
				s0.3496094,0.3876953,0.6621094,0.3876953c0.3085938,0,0.5292969-0.1328125,0.6621094-0.3984375
				c0.1328125-0.2666016,0.1992188-0.734375,0.1992188-1.4033203V0.244876h3.0820312v5.8642578
				c0,0.7685547-0.0400391,1.4013672-0.1201172,1.8984375c-0.0800781,0.4980469-0.2080078,0.9140625-0.3837891,1.2480469
				c-0.34375,0.6748047-0.8125,1.1923828-1.40625,1.5517578s-1.2714844,0.5390625-2.0332031,0.5390625
				c-0.765625,0-1.4453125-0.1796875-2.0390625-0.5390625s-1.0625-0.8769531-1.40625-1.5517578
				c-0.171875-0.3291016-0.296875-0.7402344-0.375-1.2333984C45.0834961,7.5300322,45.0444336,6.8923368,45.0444336,6.1091337z"/>
			<path class="st5" d="M53.3496094,10.1355009l0.984375-3.0292969c0.4414062,0.3896484,0.8349609,0.6738281,1.1806641,0.8535156
				s0.6689453,0.2695312,0.9697266,0.2695312c0.2109375,0,0.3769531-0.0507812,0.4980469-0.1513672
				s0.1816406-0.2373047,0.1816406-0.4101562c0-0.2998047-0.3027344-0.5292969-0.9082031-0.6865234
				c-0.1953125-0.0546875-0.3476562-0.0957031-0.4570312-0.1259766c-0.640625-0.1962891-1.1308594-0.5458984-1.4707031-1.0488281
				c-0.3398438-0.5019531-0.5097656-1.1269531-0.5097656-1.8759763c0-1.1621094,0.3300781-2.1074219,0.9902344-2.8359375
				s1.5253906-1.09375,2.5957031-1.09375c0.4921875,0,0.9765625,0.0810547,1.453125,0.2441406
				c0.4765625,0.1621094,0.9570312,0.4082031,1.4414062,0.7382812l-0.9375,2.8291016
				c-0.296875-0.2753906-0.5947266-0.4863281-0.8935547-0.6318359c-0.2988281-0.1445312-0.5888672-0.2177734-0.8701172-0.2177734
				c-0.2148438,0-0.3808594,0.0458984-0.4980469,0.1367188c-0.1171875,0.0917969-0.1757812,0.2177734-0.1757812,0.3808594
				c0,0.3046875,0.4277344,0.5732419,1.2832031,0.8046873c0.1367188,0.0400391,0.2421875,0.0693359,0.3164062,0.0888672
				c0.5898438,0.1669922,1.0546875,0.5097656,1.3945312,1.0263672c0.3398438,0.5175781,0.5097656,1.1425781,0.5097656,1.8759766
				c0,1.1972656-0.3427734,2.1748047-1.0283203,2.9326172c-0.6855469,0.7587891-1.5771484,1.1376953-2.6748047,1.1376953
				c-0.5625,0-1.125-0.1005859-1.6875-0.3027344S53.9121094,10.5388212,53.3496094,10.1355009z"/>
			<path class="st5" d="M61.0629883,11.0583525V0.244876h5.7363281v2.9326172h-2.7128906v1.0410154h2.4609375V6.98804h-2.4609375
				v1.1376953h2.7832031v2.9326172H61.0629883z"/>
			<path class="st5" d="M67.6279297,6.1091337V0.244876h3.0820312v5.8945312c0,0.6845703,0.0644531,1.1552734,0.1933594,1.4140625
				s0.3496094,0.3876953,0.6621094,0.3876953c0.3085938,0,0.5292969-0.1328125,0.6621094-0.3984375
				c0.1328125-0.2666016,0.1992188-0.734375,0.1992188-1.4033203V0.244876h3.0820312v5.8642578
				c0,0.7685547-0.0400391,1.4013672-0.1201172,1.8984375c-0.0800781,0.4980469-0.2080078,0.9140625-0.3837891,1.2480469
				c-0.34375,0.6748047-0.8125,1.1923828-1.40625,1.5517578s-1.2714844,0.5390625-2.0332031,0.5390625
				c-0.765625,0-1.4453125-0.1796875-2.0390625-0.5390625s-1.0625-0.8769531-1.40625-1.5517578
				c-0.171875-0.3291016-0.296875-0.7402344-0.375-1.2333984C67.6669922,7.5300322,67.6279297,6.8923368,67.6279297,6.1091337z"/>
			<path class="st5" d="M80.4296875,11.0583525V0.244876h2.4960938c0.7929688,0,1.4697266,0.0556641,2.0302734,0.1660156
				c0.5605469,0.1113281,1.0166016,0.2822265,1.3681641,0.5136719c0.7421875,0.4921875,1.3115234,1.1445314,1.7080078,1.9570314
				s0.5947266,1.738281,0.5947266,2.7773435c0,1.0341797-0.1972656,1.9550781-0.5917969,2.7626953
				s-0.9648438,1.4599609-1.7109375,1.9570312C85.9609375,10.6149931,85.5,10.7878447,84.9414062,10.8962431
				s-1.3066406,0.1621094-2.2441406,0.1621094H80.4296875z M83.4882812,7.7565947
				c0.6953125-0.0048828,1.203125-0.1757812,1.5234375-0.5136719c0.3203125-0.3369141,0.4804688-0.8652344,0.4804688-1.5839844
				c0-0.7041016-0.1533203-1.2285156-0.4599609-1.5732422s-0.7763672-0.5166013-1.4091797-0.5166013h-0.1347656V7.7565947z"/>
			<path class="st5" d="M98.3969727,5.6735868c0,0.7929688-0.1113281,1.5302734-0.3339844,2.2119141
				c-0.2226562,0.6826172-0.5488281,1.2919922-0.9785156,1.828125c-0.4296875,0.5273438-0.9248047,0.9306641-1.4853516,1.2119141
				c-0.5605469,0.2802734-1.1572266,0.4208984-1.7900391,0.4208984c-0.640625,0-1.2402344-0.140625-1.7988281-0.4208984
				c-0.5585938-0.28125-1.0546875-0.6894531-1.4882812-1.2265625c-0.4257812-0.5214844-0.7480469-1.1220703-0.9667969-1.8017578
				s-0.328125-1.4208984-0.328125-2.2236328s0.109375-1.5458984,0.328125-2.2304685s0.5410156-1.2880859,0.9667969-1.8095704
				c0.4296875-0.5322266,0.9238281-0.9365234,1.4824219-1.2148438s1.1601562-0.4179688,1.8046875-0.4179688
				s1.2460938,0.1396484,1.8046875,0.4179688s1.0546875,0.6826172,1.4882812,1.2148438
				c0.421875,0.5263673,0.7431641,1.1328126,0.9638672,1.8164064C98.2866211,4.1345243,98.3969727,4.8757353,98.3969727,5.6735868z
				 M93.809082,7.7126493c0.4335938,0,0.7822266-0.1865234,1.0458984-0.5576172
				c0.2636719-0.3720703,0.3955078-0.8652344,0.3955078-1.4814453c0-0.6201172-0.1318359-1.1191406-0.3955078-1.4951172
				c-0.2636719-0.3769529-0.6123047-0.5654294-1.0458984-0.5654294s-0.7832031,0.1894531-1.0488281,0.5683591
				c-0.265625,0.3798828-0.3984375,0.8769531-0.3984375,1.4921875c0,0.6162109,0.1328125,1.109375,0.3984375,1.4814453
				C93.0258789,7.5261259,93.3754883,7.7126493,93.809082,7.7126493z"/>
			<path class="st5" d="M37.9111328,28.0583534V17.2448769h3.1347656v10.8134766H37.9111328z"/>
			<path class="st5" d="M42.3139648,28.0583534V17.2448769h3.6855469c1.296875,0,2.2451172,0.3154297,2.8447266,0.9453125
				c0.5996094,0.6308594,0.8994141,1.6298828,0.8994141,2.9990234c0,1.2753906-0.2695312,2.2070312-0.8085938,2.7958984
				c-0.5390625,0.5878906-1.3945312,0.8828125-2.5664062,0.8828125h-0.9667969v3.1904297H42.3139648z M45.4135742,20.2507362
				v1.8027344h0.4804688c0.2929688,0,0.5175781-0.078125,0.6738281-0.2324219
				c0.15625-0.1552734,0.234375-0.3759766,0.234375-0.6611328c0-0.2861328-0.0800781-0.5087891-0.2402344-0.6689453
				s-0.3828125-0.2402344-0.6679688-0.2402344H45.4135742z"/>
			<path class="st5" d="M50.4726562,28.0583534V17.2448769h3.1347656v10.8134766H50.4726562z"/>
			<path class="st5" d="M54.8754883,28.0583534V17.2448769h3.8789062c1.125,0,1.984375,0.3125,2.578125,0.9375
				c0.59375,0.6259766,0.890625,1.5273438,0.890625,2.7041016c0,0.7675781-0.1494141,1.4003906-0.4482422,1.8984375
				c-0.2988281,0.4970703-0.7021484,0.7871094-1.2099609,0.8710938l2.2910156,4.4023438h-3.4570312l-1.5-3.5673828v3.5673828
				H54.8754883z M57.8989258,20.0290565v2.1132812h0.4804688c0.2929688,0,0.5185547-0.0898438,0.6767578-0.2705078
				c0.1582031-0.1796875,0.2373047-0.4365234,0.2373047-0.7714844c0-0.3447266-0.0791016-0.609375-0.2373047-0.7939453
				s-0.3837891-0.2773438-0.6767578-0.2773438H57.8989258z"/>
			<path class="st5" d="M61.9326172,28.0583534l3.0585938-10.8134766h3.4335938l3,10.8134766h-3.3164062l-0.2753906-1.359375
				h-2.3261719l-0.2636719,1.359375H61.9326172z M66.0224609,24.1286659h1.2832031L67.0419922,22.90308
				c-0.1289062-0.6210938-0.2167969-1.0986328-0.2636719-1.4335938s-0.0761719-0.6494141-0.0878906-0.9453125h-0.0527344
				c-0.0117188,0.2958984-0.0410156,0.6103516-0.0878906,0.9453125s-0.1347656,0.8125-0.2636719,1.4335938L66.0224609,24.1286659z"
				/>
			<path class="st5" d="M71.503418,28.0583534V17.2448769h3.0234375l2.6660156,5.6582031
				c-0.0351562-0.2519531-0.0595703-0.5292969-0.0732422-0.8349609s-0.0205078-0.7041016-0.0205078-1.1962891v-3.6269531h2.9707031
				v10.8134766h-3.046875l-2.6367188-5.6132812c0.03125,0.2412109,0.0546875,0.5009766,0.0703125,0.7792969
				s0.0234375,0.5898438,0.0234375,0.9335938v3.9003906H71.503418z"/>
			<path class="st5" d="M86.7109375,24.1882362h-1.3417969v-2.5410156h4.7402344
				c0.0078125,0.2216797,0.0136719,0.3867188,0.0175781,0.4951172s0.0058594,0.2041016,0.0058594,0.2880859
				c0,0.6201172-0.046875,1.1865234-0.140625,1.6982422c-0.09375,0.5126953-0.2304688,0.9658203-0.4101562,1.359375
				c-0.4375,0.9257812-1.0019531,1.6337891-1.6933594,2.1230469c-0.6914062,0.4902344-1.4765625,0.7353516-2.3554688,0.7353516
				c-0.6484375,0-1.2509766-0.1367188-1.8076172-0.4101562s-1.0498047-0.6757812-1.4794922-1.2070312
				c-0.4257812-0.5322266-0.7480469-1.140625-0.9667969-1.8251953c-0.21875-0.6835938-0.328125-1.4277344-0.328125-2.2304688
				c0-0.8076172,0.1103516-1.5546875,0.3310547-2.2412109c0.2207031-0.6875,0.5419922-1.2919922,0.9638672-1.8134766
				c0.4257812-0.5273438,0.9179688-0.9287109,1.4765625-1.2041016s1.1621094-0.4140625,1.8105469-0.4140625
				c0.8789062,0,1.6601562,0.2431641,2.34375,0.7275391c0.6835938,0.4853516,1.2421875,1.1953125,1.6757812,2.1308594
				l-2.7480469,1.2851562c-0.1445312-0.2998047-0.3183594-0.5244141-0.5214844-0.671875s-0.4355469-0.2216797-0.6972656-0.2216797
				c-0.4570312,0-0.8212891,0.2197266-1.0927734,0.6572266c-0.2714844,0.4384766-0.4072266,1.0273438-0.4072266,1.765625
				c0,0.7636719,0.1367188,1.3554688,0.4101562,1.7763672s0.6601562,0.6318359,1.1601562,0.6318359
				c0.296875,0,0.5380859-0.0791016,0.7236328-0.2363281S86.6757812,24.4685097,86.7109375,24.1882362z"/>
			<path class="st5" d="M89.7250977,28.0583534l3.0585938-10.8134766h3.4335938l3,10.8134766h-3.3164062l-0.2753906-1.359375
				h-2.3261719l-0.2636719,1.359375H89.7250977z M93.8149414,24.1286659h1.2832031L94.8344727,22.90308
				c-0.1289062-0.6210938-0.2167969-1.0986328-0.2636719-1.4335938s-0.0761719-0.6494141-0.0878906-0.9453125h-0.0527344
				c-0.0117188,0.2958984-0.0410156,0.6103516-0.0878906,0.9453125s-0.1347656,0.8125-0.2636719,1.4335938L93.8149414,24.1286659z"
				/>
		</g>
	</g>
	<g>
		<rect x="112.8858261" class="st5" width="1" height="28.3466797"/>
	</g>
</g>
</svg>
