<?xml version="1.0" encoding="utf-8"?>
<!-- Generator: Adobe Illustrator 25.2.1, SVG Export Plug-In . SVG Version: 6.00 Build 0)  -->
<svg version="1.1" id="Layer_1" xmlns="http://www.w3.org/2000/svg" xmlns:xlink="http://www.w3.org/1999/xlink" x="0px" y="0px"
	 viewBox="0 0 226.7716522 28.3464565" style="enable-background:new 0 0 226.7716522 28.3464565;" xml:space="preserve">
<style type="text/css">
	.st0{opacity:0;fill:#FFFFFF;}
	.st1{fill:#597876;}
	.st2{fill:#0061A0;}
	.st3{fill:#EC6783;}
	.st4{fill:#FAB80E;}
	.st5{fill:#F37F1A;}
	.st6{fill:#800080;}
	.st7{opacity:0;fill:#597876;}
	.st8{opacity:0;fill:#0061A0;}
	.st9{opacity:0;fill:#EC6783;}
	.st10{opacity:0;fill:#FAB80E;}
	.st11{opacity:0;fill:#F37F1A;}
	.st12{opacity:0;fill:#800080;}
</style>
<g>
	<rect x="0.0000717" y="0.0007113" class="st11" width="226.7716522" height="28.3464565"/>
	<g>
		<g>
			<path class="st5" d="M130.6567688,11.0358915l-2.9589767-8.9121094h0.8144455l2.1445312,6.8496094l2.2851562-7.1894531
				l2.3730469,7.1308594l2.0625-6.7910156h0.8085938l-2.8710938,8.9121094l-2.3730469-7.2832031L130.6567688,11.0358915z"/>
			<path class="st5" d="M139.2876282,10.7019072V1.619876h0.6855469v4.6875
				c0.2109375-0.3320312,0.4697266-0.5810547,0.7763672-0.7470703s0.6591797-0.2490234,1.0576172-0.2490234
				c0.5898438,0,1.0488281,0.1640625,1.3769531,0.4921875S143.6763,6.5886259,143.6763,7.1745634v3.5273438h-0.7324219V7.496829
				c0-0.5195312-0.1083984-0.9052734-0.3251953-1.1572266S142.066925,5.9616728,141.6138,5.9616728
				c-0.5507812,0-0.9560547,0.1630859-1.2158203,0.4892578s-0.3896484,0.8388672-0.3896484,1.5380859v2.7128906H139.2876282z"/>
			<path class="st5" d="M150.004425,8.1237822h-4.1308594c0.0195312,0.671875,0.1875,1.1992188,0.5039062,1.5820312
				s0.7402344,0.5742188,1.2714844,0.5742188c0.3828125,0,0.71875-0.1035156,1.0078125-0.3105469
				s0.5292969-0.5195312,0.7207031-0.9375l0.6621094,0.3632812c-0.265625,0.5273438-0.5908203,0.9150391-0.9755859,1.1630859
				s-0.8564453,0.3720703-1.4150391,0.3720703c-0.7617188,0-1.3779297-0.2548828-1.8486328-0.7646484
				s-0.7060547-1.1787109-0.7060547-2.0068359c0-0.8515625,0.2333984-1.5390625,0.7001953-2.0625
				s1.0771484-0.7851562,1.8310547-0.7851562c0.71875,0,1.2949219,0.2412109,1.7285156,0.7236328
				s0.6503906,1.1259766,0.6503906,1.9306641V8.1237822z M149.1489563,7.5085478
				c-0.0351562-0.4765625-0.1933594-0.8457031-0.4746094-1.1074219s-0.6621094-0.3925781-1.1425781-0.3925781
				c-0.4375,0-0.8037109,0.1367188-1.0986328,0.4101562s-0.4658203,0.6367188-0.5126953,1.0898438H149.1489563z"/>
			<path class="st5" d="M152.2251282,6.5476103c0.265625-0.4492188,0.5263672-0.7675781,0.7822266-0.9550781
				s0.5537109-0.28125,0.8935547-0.28125c0.1015625,0,0.2041016,0.0097656,0.3076172,0.0292969
				s0.2060547,0.046875,0.3076172,0.0820312l-0.234375,0.6796875c-0.078125-0.0234375-0.1591797-0.0429688-0.2431641-0.0585938
				s-0.1650391-0.0234375-0.2431641-0.0234375c-0.4335938,0-0.8037109,0.203125-1.1103516,0.609375
				s-0.4599609,0.9121094-0.4599609,1.5175781v2.5546875h-0.7207031V5.5046415h0.7207031V6.5476103z"/>
			<path class="st5" d="M159.7485657,8.1237822h-4.1308594c0.0195312,0.671875,0.1875,1.1992188,0.5039062,1.5820312
				s0.7402344,0.5742188,1.2714844,0.5742188c0.3828125,0,0.71875-0.1035156,1.0078125-0.3105469
				s0.5292969-0.5195312,0.7207031-0.9375l0.6621094,0.3632812c-0.265625,0.5273438-0.5908203,0.9150391-0.9755859,1.1630859
				s-0.8564453,0.3720703-1.4150391,0.3720703c-0.7617188,0-1.3779297-0.2548828-1.8486328-0.7646484
				s-0.7060547-1.1787109-0.7060547-2.0068359c0-0.8515625,0.2333984-1.5390625,0.7001953-2.0625
				s1.0771484-0.7851562,1.8310547-0.7851562c0.71875,0,1.2949219,0.2412109,1.7285156,0.7236328
				s0.6503906,1.1259766,0.6503906,1.9306641V8.1237822z M158.8930969,7.5085478
				c-0.0351562-0.4765625-0.1933594-0.8457031-0.4746094-1.1074219s-0.6621094-0.3925781-1.1425781-0.3925781
				c-0.4375,0-0.8037109,0.1367188-1.0986328,0.4101562s-0.4658203,0.6367188-0.5126953,1.0898438H158.8930969z"/>
			<path class="st5" d="M164.5708313,3.477298c0-0.1523438,0.0546875-0.2822266,0.1640625-0.3896484
				s0.2402344-0.1611328,0.3925781-0.1611328s0.2841797,0.0537109,0.3955078,0.1611328s0.1669922,0.2373047,0.1669922,0.3896484
				c0,0.15625-0.0537109,0.2871094-0.1611328,0.3925781s-0.2412109,0.1582029-0.4013672,0.1582029
				c-0.15625,0-0.2880859-0.0527341-0.3955078-0.1582029S164.5708313,3.633548,164.5708313,3.477298z M164.7524719,10.7019072
				V5.5046415h0.7441406v5.1972656H164.7524719z"/>
			<path class="st5" d="M166.8735657,9.7761259l0.6855469-0.3925781c0.1132812,0.2890625,0.2773438,0.5068359,0.4921875,0.6533203
				s0.4785156,0.2197266,0.7910156,0.2197266c0.3046875,0,0.546875-0.0771484,0.7265625-0.2314453
				s0.2695312-0.3603516,0.2695312-0.6181641c0-0.3984375-0.3535156-0.7363281-1.0605469-1.0136719
				c-0.0742188-0.0273438-0.1328125-0.0507812-0.1757812-0.0703125c-0.546875-0.2148438-0.9296875-0.4365234-1.1484375-0.6650391
				s-0.328125-0.5107422-0.328125-0.8466797c0-0.4414062,0.15625-0.8037109,0.46875-1.0869141
				s0.7167969-0.4248047,1.2128906-0.4248047c0.421875,0,0.78125,0.0917969,1.078125,0.2753906
				s0.5136719,0.4453125,0.6503906,0.7851562l-0.6621094,0.3691406c-0.0820312-0.2460938-0.21875-0.4335938-0.4101562-0.5625
				s-0.4257812-0.1933594-0.703125-0.1933594c-0.25,0-0.4560547,0.0732422-0.6181641,0.2197266
				s-0.2431641,0.3291016-0.2431641,0.5478516c0,0.2148438,0.0800781,0.3925781,0.2402344,0.5332031
				s0.4921875,0.2949219,0.9960938,0.4628906c0.5703125,0.1992188,0.9541016,0.4160156,1.1513672,0.6503906
				s0.2958984,0.5585938,0.2958984,0.9726562c0,0.4765625-0.1699219,0.8574219-0.5097656,1.1425781
				s-0.796875,0.4277344-1.3710938,0.4277344c-0.4414062,0-0.8212891-0.1005859-1.1396484-0.3017578
				S167.0141907,10.1433134,166.8735657,9.7761259z"/>
			<path class="st5" d="M175.6567688,6.1198759h-0.9550781V5.5046415h0.9550781V3.3718293h0.7089844v2.1328123h1.0429688v0.6152344
				h-1.0429688v4.5820312h-0.7089844V6.1198759z"/>
			<path class="st5" d="M178.4809875,10.7019072V1.619876h0.6855469v4.6875
				c0.2109375-0.3320312,0.4697266-0.5810547,0.7763672-0.7470703s0.6591797-0.2490234,1.0576172-0.2490234
				c0.5898438,0,1.0488281,0.1640625,1.3769531,0.4921875s0.4921875,0.7851562,0.4921875,1.3710938v3.5273438h-0.7324219V7.496829
				c0-0.5195312-0.1083984-0.9052734-0.3251953-1.1572266s-0.5517578-0.3779297-1.0048828-0.3779297
				c-0.5507812,0-0.9560547,0.1630859-1.2158203,0.4892578s-0.3896484,0.8388672-0.3896484,1.5380859v2.7128906H178.4809875z"/>
			<path class="st5" d="M189.1977844,8.1237822h-4.1308594c0.0195312,0.671875,0.1875,1.1992188,0.5039062,1.5820312
				s0.7402344,0.5742188,1.2714844,0.5742188c0.3828125,0,0.71875-0.1035156,1.0078125-0.3105469
				s0.5292969-0.5195312,0.7207031-0.9375l0.6621094,0.3632812c-0.265625,0.5273438-0.5908203,0.9150391-0.9755859,1.1630859
				s-0.8564453,0.3720703-1.4150391,0.3720703c-0.7617188,0-1.3779297-0.2548828-1.8486328-0.7646484
				s-0.7060547-1.1787109-0.7060547-2.0068359c0-0.8515625,0.2333984-1.5390625,0.7001953-2.0625
				s1.0771484-0.7851562,1.8310547-0.7851562c0.71875,0,1.2949219,0.2412109,1.7285156,0.7236328
				s0.6503906,1.1259766,0.6503906,1.9306641V8.1237822z M188.3423157,7.5085478
				c-0.0351562-0.4765625-0.1933594-0.8457031-0.4746094-1.1074219s-0.6621094-0.3925781-1.1425781-0.3925781
				c-0.4375,0-0.8037109,0.1367188-1.0986328,0.4101562S185.160675,7.0554228,185.1138,7.5085478H188.3423157z"/>
			<path class="st5" d="M130.8735657,25.3308144c-0.3710938,0-0.7265625-0.0732422-1.0664062-0.2197266
				s-0.6484375-0.3564453-0.9257812-0.6298828c-0.2617188-0.2578125-0.4609375-0.5546875-0.5976562-0.890625
				s-0.2050781-0.6953125-0.2050781-1.078125c0-0.3789062,0.0703125-0.7382812,0.2109375-1.078125
				s0.3417969-0.640625,0.6035156-0.9023438c0.265625-0.265625,0.5683594-0.46875,0.9082031-0.609375
				s0.6972656-0.2109375,1.0722656-0.2109375c0.3828125,0,0.7480469,0.0703125,1.09375,0.2109375
				s0.6523438,0.34375,0.921875,0.609375s0.4765625,0.5683594,0.6191406,0.9082031s0.2128906,0.6972656,0.2128906,1.0722656
				s-0.0703125,0.7314453-0.2109375,1.0693359s-0.34375,0.6376953-0.609375,0.8994141
				c-0.2734375,0.2734375-0.5839844,0.4833984-0.9335938,0.6298828S131.2524719,25.3308144,130.8735657,25.3308144z
				 M130.8970032,24.6569862c0.5703125,0,1.0546875-0.2060547,1.4511719-0.6181641s0.59375-0.9169922,0.59375-1.5146484
				c0-0.6054688-0.1972656-1.1132812-0.5917969-1.5234375s-0.8789062-0.6152344-1.453125-0.6152344
				c-0.5703125,0-1.0527344,0.2050781-1.4472656,0.6152344s-0.5917969,0.9179688-0.5917969,1.5234375
				c0,0.5976562,0.1972656,1.1025391,0.5917969,1.5146484S130.3266907,24.6569862,130.8970032,24.6569862z"/>
			<path class="st5" d="M135.9302063,25.1022987h-0.7207031v-9.0820312h0.7207031v4.8339844
				c0.1757812-0.375,0.4228516-0.6591797,0.7412109-0.8525391s0.6982422-0.2900391,1.1396484-0.2900391
				c0.7109375,0,1.2910156,0.2626953,1.7402344,0.7880859s0.6738281,1.2041016,0.6738281,2.0361328
				c0,0.8398438-0.2275391,1.515625-0.6826172,2.0273438s-1.0556641,0.7675781-1.8017578,0.7675781
				c-0.4179688,0-0.78125-0.0996094-1.0898438-0.2988281s-0.5488281-0.4921875-0.7207031-0.8789062V25.1022987z
				 M139.4223938,22.55933c0-0.6796875-0.1582031-1.2138672-0.4746094-1.6025391s-0.7460938-0.5830078-1.2890625-0.5830078
				s-0.96875,0.1826172-1.2773438,0.5478516s-0.4628906,0.8662109-0.4628906,1.5029297
				c0,0.6953125,0.1572266,1.2412109,0.4716797,1.6376953s0.7451172,0.5947266,1.2919922,0.5947266
				c0.5585938,0,0.9882812-0.1806641,1.2890625-0.5419922S139.4223938,23.2351112,139.4223938,22.55933z"/>
			<path class="st5" d="M141.566925,17.8776894c0-0.1523438,0.0546875-0.2822266,0.1640625-0.3896484
				s0.2402344-0.1611328,0.3925781-0.1611328s0.2841797,0.0537109,0.3955078,0.1611328s0.1669922,0.2373047,0.1669922,0.3896484
				c0,0.15625-0.0537109,0.2871094-0.1611328,0.3925781s-0.2412109,0.1582031-0.4013672,0.1582031
				c-0.15625,0-0.2880859-0.0527344-0.3955078-0.1582031S141.566925,18.0339394,141.566925,17.8776894z M141.7485657,27.71558
				v-7.8105469h0.7441406V27.71558H141.7485657z"/>
			<path class="st5" d="M148.9263,22.5241737h-4.1308594c0.0195312,0.671875,0.1875,1.1992188,0.5039062,1.5820312
				s0.7402344,0.5742188,1.2714844,0.5742188c0.3828125,0,0.71875-0.1035156,1.0078125-0.3105469
				s0.5292969-0.5195312,0.7207031-0.9375l0.6621094,0.3632812c-0.265625,0.5273438-0.5908203,0.9150391-0.9755859,1.1630859
				s-0.8564453,0.3720703-1.4150391,0.3720703c-0.7617188,0-1.3779297-0.2548828-1.8486328-0.7646484
				s-0.7060547-1.1787109-0.7060547-2.0068359c0-0.8515625,0.2333984-1.5390625,0.7001953-2.0625
				s1.0771484-0.7851562,1.8310547-0.7851562c0.71875,0,1.2949219,0.2412109,1.7285156,0.7236328
				s0.6503906,1.1259766,0.6503906,1.9306641V22.5241737z M148.0708313,21.9089394
				c-0.0351562-0.4765625-0.1933594-0.8457031-0.4746094-1.1074219s-0.6621094-0.3925781-1.1425781-0.3925781
				c-0.4375,0-0.8037109,0.1367188-1.0986328,0.4101562s-0.4658203,0.6367188-0.5126953,1.0898438H148.0708313z"/>
			<path class="st5" d="M154.4692688,20.8542519c-0.2421875-0.1679688-0.5-0.2939453-0.7734375-0.3779297
				s-0.5546875-0.1259766-0.84375-0.1259766c-0.6445312,0-1.1582031,0.2060547-1.5410156,0.6181641
				s-0.5742188,0.9619141-0.5742188,1.6494141c0,0.609375,0.1982422,1.1113281,0.5947266,1.5058594
				s0.9033203,0.5917969,1.5205078,0.5917969c0.28125,0,0.5654297-0.0488281,0.8525391-0.1464844
				s0.5693359-0.2441406,0.8466797-0.4394531v0.7910156c-0.2539062,0.1445312-0.5351562,0.2529297-0.84375,0.3251953
				s-0.6386719,0.1083984-0.9902344,0.1083984c-0.7929688,0-1.4433594-0.2607422-1.9511719-0.7822266
				s-0.7617188-1.1884766-0.7617188-2.0009766c0-0.8476562,0.2646484-1.5361328,0.7939453-2.0654297
				s1.2177734-0.7939453,2.0654297-0.7939453c0.3125,0,0.6064453,0.0302734,0.8818359,0.0908203
				s0.5205078,0.1474609,0.7353516,0.2607422L154.4692688,20.8542519z"/>
			<path class="st5" d="M156.0513,20.5202675h-0.9550781v-0.6152344H156.0513v-2.1328125h0.7089844v2.1328125h1.0429688v0.6152344
				h-1.0429688v4.5820312H156.0513V20.5202675z"/>
			<path class="st5" d="M163.0532532,19.9050331v2.5957031c0,0.7890625,0.1123047,1.3457031,0.3369141,1.6699219
				s0.6044922,0.4863281,1.1396484,0.4863281c0.53125,0,0.9121094-0.1640625,1.1425781-0.4921875
				s0.3457031-0.8828125,0.3457031-1.6640625v-2.5957031h0.7148438v2.9648438c0,0.8085938-0.1855469,1.4208984-0.5566406,1.8369141
				s-0.9160156,0.6240234-1.6347656,0.6240234c-0.7226562,0-1.2714844-0.2080078-1.6464844-0.6240234
				s-0.5625-1.0283203-0.5625-1.8369141v-2.9648438H163.0532532z"/>
			<path class="st5" d="M168.0630188,24.1765175l0.6855469-0.3925781c0.1132812,0.2890625,0.2773438,0.5068359,0.4921875,0.6533203
				s0.4785156,0.2197266,0.7910156,0.2197266c0.3046875,0,0.546875-0.0771484,0.7265625-0.2314453
				s0.2695312-0.3603516,0.2695312-0.6181641c0-0.3984375-0.3535156-0.7363281-1.0605469-1.0136719
				c-0.0742188-0.0273438-0.1328125-0.0507812-0.1757812-0.0703125c-0.546875-0.2148438-0.9296875-0.4365234-1.1484375-0.6650391
				s-0.328125-0.5107422-0.328125-0.8466797c0-0.4414062,0.15625-0.8037109,0.46875-1.0869141
				s0.7167969-0.4248047,1.2128906-0.4248047c0.421875,0,0.78125,0.0917969,1.078125,0.2753906
				s0.5136719,0.4453125,0.6503906,0.7851562l-0.6621094,0.3691406c-0.0820312-0.2460938-0.21875-0.4335938-0.4101562-0.5625
				s-0.4257812-0.1933594-0.703125-0.1933594c-0.25,0-0.4560547,0.0732422-0.6181641,0.2197266
				s-0.2431641,0.3291016-0.2431641,0.5478516c0,0.2148438,0.0800781,0.3925781,0.2402344,0.5332031
				s0.4921875,0.2949219,0.9960938,0.4628906c0.5703125,0.1992188,0.9541016,0.4160156,1.1513672,0.6503906
				s0.2958984,0.5585938,0.2958984,0.9726562c0,0.4765625-0.1699219,0.8574219-0.5097656,1.1425781
				s-0.796875,0.4277344-1.3710938,0.4277344c-0.4414062,0-0.8212891-0.1005859-1.1396484-0.3017578
				S168.2036438,24.543705,168.0630188,24.1765175z"/>
			<path class="st5" d="M177.7016907,22.5241737h-4.1308594c0.0195312,0.671875,0.1875,1.1992188,0.5039062,1.5820312
				s0.7402344,0.5742188,1.2714844,0.5742188c0.3828125,0,0.71875-0.1035156,1.0078125-0.3105469
				s0.5292969-0.5195312,0.7207031-0.9375l0.6621094,0.3632812c-0.265625,0.5273438-0.5908203,0.9150391-0.9755859,1.1630859
				s-0.8564453,0.3720703-1.4150391,0.3720703c-0.7617188,0-1.3779297-0.2548828-1.8486328-0.7646484
				s-0.7060547-1.1787109-0.7060547-2.0068359c0-0.8515625,0.2333984-1.5390625,0.7001953-2.0625
				s1.0771484-0.7851562,1.8310547-0.7851562c0.71875,0,1.2949219,0.2412109,1.7285156,0.7236328
				s0.6503906,1.1259766,0.6503906,1.9306641V22.5241737z M176.8462219,21.9089394
				c-0.0351562-0.4765625-0.1933594-0.8457031-0.4746094-1.1074219s-0.6621094-0.3925781-1.1425781-0.3925781
				c-0.4375,0-0.8037109,0.1367188-1.0986328,0.4101562s-0.4658203,0.6367188-0.5126953,1.0898438H176.8462219z"/>
			<path class="st5" d="M183.0513,25.1022987V24.15308c-0.171875,0.3867188-0.4121094,0.6796875-0.7207031,0.8789062
				s-0.671875,0.2988281-1.0898438,0.2988281c-0.7460938,0-1.3466797-0.2558594-1.8017578-0.7675781
				s-0.6826172-1.1875-0.6826172-2.0273438c0-0.8320312,0.2246094-1.5107422,0.6738281-2.0361328
				s1.0292969-0.7880859,1.7402344-0.7880859c0.4414062,0,0.8212891,0.0966797,1.1396484,0.2900391
				s0.5654297,0.4775391,0.7412109,0.8525391v-4.8339844h0.7324219v9.0820312H183.0513z M179.5591125,22.55933
				c0,0.671875,0.1513672,1.1894531,0.4541016,1.5527344s0.7353516,0.5449219,1.2978516,0.5449219
				c0.5429688,0,0.9707031-0.1982422,1.2832031-0.5947266s0.46875-0.9423828,0.46875-1.6376953
				c0-0.6367188-0.1542969-1.1376953-0.4628906-1.5029297s-0.734375-0.5478516-1.2773438-0.5478516
				s-0.9726562,0.1943359-1.2890625,0.5830078S179.5591125,21.8796425,179.5591125,22.55933z"/>
			<path class="st5" d="M186.4380188,18.6804237h-0.6972656v-0.1875c0-0.671875,0.1894531-1.2001953,0.5683594-1.5849609
				s0.8984375-0.5771484,1.5585938-0.5771484c0.59375,0,1.0673828,0.1757812,1.4208984,0.5273438
				s0.5302734,0.8242188,0.5302734,1.4179688c0,0.4335938-0.09375,0.796875-0.28125,1.0898438s-0.5683594,0.625-1.1425781,0.9960938
				c-0.1015625,0.0625-0.2421875,0.1503906-0.421875,0.2636719c-0.7773438,0.4804688-1.1660156,0.9335938-1.1660156,1.359375
				c0,0.28125,0.0898438,0.5068359,0.2695312,0.6767578s0.4179688,0.2548828,0.7148438,0.2548828
				c0.3476562,0,0.6171875-0.0908203,0.8085938-0.2724609s0.2871094-0.4384766,0.2871094-0.7705078v-0.1054688h0.6445312v0.140625
				c0,0.5273438-0.15625,0.9316406-0.46875,1.2128906s-0.7636719,0.421875-1.3535156,0.421875
				c-0.484375,0-0.8798828-0.1464844-1.1865234-0.4394531s-0.4599609-0.671875-0.4599609-1.1367188
				c0-0.3398438,0.0898438-0.6396484,0.2695312-0.8994141s0.5136719-0.5517578,1.0019531-0.8759766
				c0.1015625-0.0625,0.2441406-0.1523438,0.4277344-0.2695312c0.8828125-0.5585938,1.3242188-1.0917969,1.3242188-1.5996094
				c0-0.3789062-0.1132812-0.6816406-0.3398438-0.9082031s-0.5332031-0.3398438-0.9199219-0.3398438
				c-0.4453125,0-0.7880859,0.1367188-1.0283203,0.4101562s-0.3603516,0.6601562-0.3603516,1.1601562V18.6804237z
				 M187.08255,24.7331581c0-0.1679688,0.0585938-0.3105469,0.1757812-0.4277344s0.2597656-0.1757812,0.4277344-0.1757812
				s0.3095703,0.0585938,0.4248047,0.1757812s0.1728516,0.2597656,0.1728516,0.4277344s-0.0576172,0.3095703-0.1728516,0.4248047
				s-0.2568359,0.1728516-0.4248047,0.1728516s-0.3105469-0.0576172-0.4277344-0.1728516S187.08255,24.9011269,187.08255,24.7331581
				z"/>
		</g>
		<g>
			<g>
				<path class="st5" d="M6.0825553,5.5847197C6.0708365,5.9392118,6.0063834,6.4489775,5.8891959,7.1140165
					C5.8696647,7.222415,5.8540397,7.3083525,5.8423209,7.3728056l-0.6445312,3.6855469H2.5083365L0.0005241,0.244876h3.09375
					l0.6738281,4.7636719c0.0585938,0.4189453,0.1035156,0.8017578,0.1347656,1.1494141
					c0.03125,0.3466797,0.0507812,0.6728516,0.0585938,0.9785156H4.031774
					C4.0395865,6.7077665,4.1001334,6.14429,4.2134147,5.4450712c0.0078125-0.0644531,0.015625-0.1162109,0.0234375-0.1552734
					L5.0513053,0.244876h2.1738281L8.039587,5.2966337c0.0039062,0.0302734,0.0117188,0.0791016,0.0234375,0.1484375
					c0.1132812,0.7041016,0.1738281,1.2675781,0.1816406,1.6914062h0.0703125
					c0.0078125-0.3056641,0.0273438-0.6318359,0.0585938-0.9785156c0.03125-0.3476562,0.0761719-0.7304688,0.1347656-1.1494141
					L9.1821651,0.244876h3.09375L9.7681026,11.0583525H7.078649L6.4341178,7.3728056
					C6.422399,7.3083525,6.406774,7.2204618,6.3872428,7.106204C6.2700553,6.4470243,6.2056022,5.9392118,6.1938834,5.5847197
					H6.0825553z"/>
				<path class="st5" d="M12.4653683,11.0583525V0.244876h3.1347656v10.8134766H12.4653683z"/>
				<path class="st5" d="M16.8686886,11.0583525V0.244876h3.0234375v4.609375l1.9570312-4.609375h3.4921875l-2.5898438,5.3251953
					l2.953125,5.4882812h-3.7324219l-2.0800781-4.5205078v4.5205078H16.8686886z"/>
				<path class="st5" d="M25.7007198,11.0583525V0.244876h3.1347656v10.8134766H25.7007198z"/>
				<path class="st5" d="M41.6606789,11.0583525l-0.375-4.2841797c-0.0234375-0.3300781-0.046875-0.6582031-0.0703125-0.9863281
					c-0.0234375-0.3271484-0.0429688-0.6552734-0.0585938-0.9853516c-0.0351562,0.3095703-0.0849609,0.6386719-0.1494141,0.9853516
					c-0.0644531,0.3476562-0.1435547,0.7177734-0.2373047,1.1123047l-0.984375,4.1582031h-1.8339844l-0.984375-4.1582031
					c-0.0976562-0.3945312-0.1777344-0.7646484-0.2402344-1.1123047c-0.0625-0.3466797-0.1113281-0.6757812-0.1464844-0.9853516
					c-0.0195312,0.3349609-0.0400391,0.6640625-0.0615234,0.9892578s-0.0439453,0.6523438-0.0673828,0.9824219l-0.375,4.2841797
					H33.053257L34.5181007,0.244876h3.1816406l0.609375,2.6738281c0.0195312,0.0839844,0.0488281,0.2089844,0.0878906,0.3769531
					c0.2578125,1.1269529,0.4160156,2.0556638,0.4746094,2.7841794h0.0527344
					c0.046875-0.4580078,0.1171875-0.9453125,0.2109375-1.4619141c0.09375-0.5175781,0.21875-1.0986326,0.375-1.7431638
					l0.6386719-2.6298828h3.1757812l1.359375,10.8134766H41.6606789z"/>
				<path class="st5" d="M45.0444679,6.1091337V0.244876h3.0820312v5.8945312c0,0.6845703,0.0644531,1.1552734,0.1933594,1.4140625
					s0.3496094,0.3876953,0.6621094,0.3876953c0.3085938,0,0.5292969-0.1328125,0.6621094-0.3984375
					c0.1328125-0.2666016,0.1992188-0.734375,0.1992188-1.4033203V0.244876h3.0820312v5.8642578
					c0,0.7685547-0.0400391,1.4013672-0.1201172,1.8984375c-0.0800781,0.4980469-0.2080078,0.9140625-0.3837891,1.2480469
					c-0.34375,0.6748047-0.8125,1.1923828-1.40625,1.5517578s-1.2714844,0.5390625-2.0332031,0.5390625
					c-0.765625,0-1.4453125-0.1796875-2.0390625-0.5390625s-1.0625-0.8769531-1.40625-1.5517578
					c-0.171875-0.3291016-0.296875-0.7402344-0.375-1.2333984C45.0835304,7.5300322,45.0444679,6.8923368,45.0444679,6.1091337z"/>
				<path class="st5" d="M53.3491554,10.1355009l0.984375-3.0292969c0.4414062,0.3896484,0.8349609,0.6738281,1.1806641,0.8535156
					s0.6689453,0.2695312,0.9697266,0.2695312c0.2109375,0,0.3769531-0.0507812,0.4980469-0.1513672
					s0.1816406-0.2373047,0.1816406-0.4101562c0-0.2998047-0.3027344-0.5292969-0.9082031-0.6865234
					c-0.1953125-0.0546875-0.3476562-0.0957031-0.4570312-0.1259766c-0.640625-0.1962891-1.1308594-0.5458984-1.4707031-1.0488281
					c-0.3398438-0.5019531-0.5097656-1.1269531-0.5097656-1.8759763c0-1.1621094,0.3300781-2.1074219,0.9902344-2.8359375
					s1.5253906-1.09375,2.5957031-1.09375c0.4921875,0,0.9765625,0.0810547,1.453125,0.2441406
					c0.4765625,0.1621094,0.9570312,0.4082031,1.4414062,0.7382812l-0.9375,2.8291016
					c-0.296875-0.2753906-0.5947266-0.4863281-0.8935547-0.6318359c-0.2988281-0.1445312-0.5888672-0.2177734-0.8701172-0.2177734
					c-0.2148438,0-0.3808594,0.0458984-0.4980469,0.1367188c-0.1171875,0.0917969-0.1757812,0.2177734-0.1757812,0.3808594
					c0,0.3046875,0.4277344,0.5732419,1.2832031,0.8046873c0.1367188,0.0400391,0.2421875,0.0693359,0.3164062,0.0888672
					c0.5898438,0.1669922,1.0546875,0.5097656,1.3945312,1.0263672c0.3398438,0.5175781,0.5097656,1.1425781,0.5097656,1.8759766
					c0,1.1972656-0.3427734,2.1748047-1.0283203,2.9326172c-0.6855469,0.7587891-1.5771484,1.1376953-2.6748047,1.1376953
					c-0.5625,0-1.125-0.1005859-1.6875-0.3027344S53.9116554,10.5388212,53.3491554,10.1355009z"/>
				<path class="st5" d="M61.0630226,11.0583525V0.244876h5.7363319v2.9326172h-2.7128906v1.0410154h2.4609375V6.98804h-2.4609375
					v1.1376953h2.7832031v2.9326172H61.0630226z"/>
				<path class="st5" d="M67.6274796,6.1091337V0.244876h3.0820312v5.8945312c0,0.6845703,0.0644531,1.1552734,0.1933594,1.4140625
					s0.3496094,0.3876953,0.6621094,0.3876953c0.3085938,0,0.5292969-0.1328125,0.6621094-0.3984375
					c0.1328125-0.2666016,0.1992188-0.734375,0.1992188-1.4033203V0.244876h3.0820312v5.8642578
					c0,0.7685547-0.0400391,1.4013672-0.1201172,1.8984375c-0.0800781,0.4980469-0.2080078,0.9140625-0.3837891,1.2480469
					c-0.34375,0.6748047-0.8125,1.1923828-1.40625,1.5517578s-1.2714844,0.5390625-2.0332031,0.5390625
					c-0.765625,0-1.4453125-0.1796875-2.0390625-0.5390625s-1.0625-0.8769531-1.40625-1.5517578
					c-0.171875-0.3291016-0.296875-0.7402344-0.375-1.2333984C67.6665421,7.5300322,67.6274796,6.8923368,67.6274796,6.1091337z"/>
				<path class="st5" d="M80.4292374,11.0583525V0.244876h2.4960938c0.7929688,0,1.4697266,0.0556641,2.0302734,0.1660156
					c0.5605469,0.1113281,1.0166016,0.2822265,1.3681641,0.5136719c0.7421875,0.4921875,1.3115234,1.1445314,1.7080078,1.9570314
					s0.5947266,1.738281,0.5947266,2.7773435c0,1.0341797-0.1972656,1.9550781-0.5917969,2.7626953
					s-0.9648438,1.4599609-1.7109375,1.9570312c-0.3632812,0.2363281-0.8242188,0.4091797-1.3828125,0.5175781
					s-1.3066406,0.1621094-2.2441406,0.1621094H80.4292374z M83.4878311,7.7565947
					c0.6953125-0.0048828,1.203125-0.1757812,1.5234375-0.5136719c0.3203125-0.3369141,0.4804688-0.8652344,0.4804688-1.5839844
					c0-0.7041016-0.1533203-1.2285156-0.4599609-1.5732422s-0.7763672-0.5166013-1.4091797-0.5166013h-0.1347656V7.7565947z"/>
				<path class="st5" d="M98.3970108,5.6735868c0,0.7929688-0.1113281,1.5302734-0.3339844,2.2119141
					c-0.2226562,0.6826172-0.5488281,1.2919922-0.9785156,1.828125c-0.4296875,0.5273438-0.9248047,0.9306641-1.4853516,1.2119141
					c-0.5605469,0.2802734-1.1572266,0.4208984-1.7900391,0.4208984c-0.640625,0-1.2402344-0.140625-1.7988281-0.4208984
					c-0.5585938-0.28125-1.0546875-0.6894531-1.4882812-1.2265625c-0.4257812-0.5214844-0.7480469-1.1220703-0.9667969-1.8017578
					s-0.328125-1.4208984-0.328125-2.2236328s0.109375-1.5458984,0.328125-2.2304685s0.5410156-1.2880859,0.9667969-1.8095704
					c0.4296875-0.5322266,0.9238281-0.9365234,1.4824219-1.2148438s1.1601562-0.4179688,1.8046875-0.4179688
					s1.2460938,0.1396484,1.8046875,0.4179688s1.0546875,0.6826172,1.4882812,1.2148438
					c0.421875,0.5263673,0.7431641,1.1328126,0.9638672,1.8164064C98.2866592,4.1345243,98.3970108,4.8757353,98.3970108,5.6735868z
					 M93.8091202,7.7126493c0.4335938,0,0.7822266-0.1865234,1.0458984-0.5576172
					c0.2636719-0.3720703,0.3955078-0.8652344,0.3955078-1.4814453c0-0.6201172-0.1318359-1.1191406-0.3955078-1.4951172
					c-0.2636719-0.3769529-0.6123047-0.5654294-1.0458984-0.5654294s-0.7832031,0.1894531-1.0488281,0.5683591
					c-0.265625,0.3798828-0.3984375,0.8769531-0.3984375,1.4921875c0,0.6162109,0.1328125,1.109375,0.3984375,1.4814453
					C93.0259171,7.5261259,93.3755264,7.7126493,93.8091202,7.7126493z"/>
				<path class="st5" d="M37.9106789,28.0583534V17.2448769h3.1347656v10.8134766H37.9106789z"/>
				<path class="st5" d="M42.3139992,28.0583534V17.2448769h3.6855469c1.296875,0,2.2451172,0.3154297,2.8447266,0.9453125
					c0.5996094,0.6308594,0.8994141,1.6298828,0.8994141,2.9990234c0,1.2753906-0.2695312,2.2070312-0.8085938,2.7958984
					c-0.5390625,0.5878906-1.3945312,0.8828125-2.5664062,0.8828125h-0.9667969v3.1904297H42.3139992z M45.4136086,20.2507362
					v1.8027344h0.4804688c0.2929688,0,0.5175781-0.078125,0.6738281-0.2324219
					c0.15625-0.1552734,0.234375-0.3759766,0.234375-0.6611328c0-0.2861328-0.0800781-0.5087891-0.2402344-0.6689453
					s-0.3828125-0.2402344-0.6679688-0.2402344H45.4136086z"/>
				<path class="st5" d="M50.4722023,28.0583534V17.2448769h3.1347656v10.8134766H50.4722023z"/>
				<path class="st5" d="M54.8755226,28.0583534V17.2448769h3.8789062c1.125,0,1.984375,0.3125,2.578125,0.9375
					c0.59375,0.6259766,0.890625,1.5273438,0.890625,2.7041016c0,0.7675781-0.1494141,1.4003906-0.4482422,1.8984375
					c-0.2988281,0.4970703-0.7021484,0.7871094-1.2099609,0.8710938l2.2910156,4.4023438h-3.4570312l-1.5-3.5673828v3.5673828
					H54.8755226z M57.8989601,20.0290565v2.1132812h0.4804688c0.2929688,0,0.5185547-0.0898438,0.6767578-0.2705078
					c0.1582031-0.1796875,0.2373047-0.4365234,0.2373047-0.7714844c0-0.3447266-0.0791016-0.609375-0.2373047-0.7939453
					s-0.3837891-0.2773438-0.6767578-0.2773438H57.8989601z"/>
				<path class="st5" d="M61.9321632,28.0583534l3.0585976-10.8134766h3.4335938l3,10.8134766h-3.3164062l-0.2753906-1.359375
					h-2.3261719l-0.2636719,1.359375H61.9321632z M66.0220108,24.1286659h1.2832031L67.0415421,22.90308
					c-0.1289062-0.6210938-0.2167969-1.0986328-0.2636719-1.4335938s-0.0761719-0.6494141-0.0878906-0.9453125h-0.0527344
					c-0.0117188,0.2958984-0.0410156,0.6103516-0.0878906,0.9453125s-0.1347656,0.8125-0.2636719,1.4335938L66.0220108,24.1286659z"
					/>
				<path class="st5" d="M71.5034561,28.0583534V17.2448769h3.0234375l2.6660156,5.6582031
					c-0.0351562-0.2519531-0.0595703-0.5292969-0.0732422-0.8349609s-0.0205078-0.7041016-0.0205078-1.1962891v-3.6269531h2.9707031
					v10.8134766h-3.046875l-2.6367188-5.6132812c0.03125,0.2412109,0.0546875,0.5009766,0.0703125,0.7792969
					s0.0234375,0.5898438,0.0234375,0.9335938v3.9003906H71.5034561z"/>
				<path class="st5" d="M86.7104874,24.1882362h-1.3417969v-2.5410156h4.7402344
					c0.0078125,0.2216797,0.0136719,0.3867188,0.0175781,0.4951172s0.0058594,0.2041016,0.0058594,0.2880859
					c0,0.6201172-0.046875,1.1865234-0.140625,1.6982422c-0.09375,0.5126953-0.2304688,0.9658203-0.4101562,1.359375
					c-0.4375,0.9257812-1.0019531,1.6337891-1.6933594,2.1230469c-0.6914062,0.4902344-1.4765625,0.7353516-2.3554688,0.7353516
					c-0.6484375,0-1.2509766-0.1367188-1.8076172-0.4101562s-1.0498047-0.6757812-1.4794922-1.2070312
					c-0.4257812-0.5322266-0.7480469-1.140625-0.9667969-1.8251953c-0.21875-0.6835938-0.328125-1.4277344-0.328125-2.2304688
					c0-0.8076172,0.1103516-1.5546875,0.3310547-2.2412109c0.2207031-0.6875,0.5419922-1.2919922,0.9638672-1.8134766
					c0.4257812-0.5273438,0.9179688-0.9287109,1.4765625-1.2041016s1.1621094-0.4140625,1.8105469-0.4140625
					c0.8789062,0,1.6601562,0.2431641,2.34375,0.7275391c0.6835938,0.4853516,1.2421875,1.1953125,1.6757812,2.1308594
					l-2.7480469,1.2851562c-0.1445312-0.2998047-0.3183594-0.5244141-0.5214844-0.671875s-0.4355469-0.2216797-0.6972656-0.2216797
					c-0.4570312,0-0.8212891,0.2197266-1.0927734,0.6572266c-0.2714844,0.4384766-0.4072266,1.0273438-0.4072266,1.765625
					c0,0.7636719,0.1367188,1.3554688,0.4101562,1.7763672s0.6601562,0.6318359,1.1601562,0.6318359
					c0.296875,0,0.5380859-0.0791016,0.7236328-0.2363281S86.6753311,24.4685097,86.7104874,24.1882362z"/>
				<path class="st5" d="M89.7251358,28.0583534l3.0585938-10.8134766h3.4335938l3,10.8134766h-3.3164062l-0.2753906-1.359375
					h-2.3261719l-0.2636719,1.359375H89.7251358z M93.8149796,24.1286659h1.2832031L94.8345108,22.90308
					c-0.1289062-0.6210938-0.2167969-1.0986328-0.2636719-1.4335938s-0.0761719-0.6494141-0.0878906-0.9453125h-0.0527344
					c-0.0117188,0.2958984-0.0410156,0.6103516-0.0878906,0.9453125s-0.1347656,0.8125-0.2636719,1.4335938L93.8149796,24.1286659z"
					/>
			</g>
		</g>
		<g>
			<rect x="112.8858948" y="-0.0007113" class="st5" width="1" height="28.3466797"/>
		</g>
	</g>
</g>
</svg>
